<?xml version="1.0" standalone="no"?>
<!DOCTYPE svg PUBLIC "-//W3C//DTD SVG 20010904//EN"
 "http://www.w3.org/TR/2001/REC-SVG-20010904/DTD/svg10.dtd">
<svg version="1.0" xmlns="http://www.w3.org/2000/svg"
 width="656.000000pt" height="656.000000pt" viewBox="0 0 656.000000 656.000000"
 preserveAspectRatio="xMidYMid meet">
<metadata>
Created by potrace 1.14, written by Peter Selinger 2001-2017
</metadata>
<g transform="translate(0.000000,656.000000) scale(0.100000,-0.100000)"
fill="#000000" stroke="none">
<path d="M4665 5479 c-117 -72 -214 -137 -234 -157 -16 -16 -7 -39 89 -212 32
-58 77 -141 100 -185 24 -44 46 -83 49 -87 3 -4 44 -21 91 -37 64 -23 93 -39
116 -66 20 -23 40 -35 56 -35 20 0 27 -7 32 -27 9 -33 -6 -43 -51 -33 -37 9
-49 18 -133 97 -51 49 -58 53 -105 53 -27 0 -55 -4 -62 -8 -16 -10 -33 -57
-33 -90 0 -29 14 -21 34 20 13 26 57 36 73 16 19 -23 23 -54 11 -70 -9 -12
-36 -19 -88 -23 -41 -4 -95 -15 -119 -26 -30 -13 -48 -16 -55 -9 -19 19 -26
10 -26 -34 0 -46 15 -70 26 -42 8 21 30 20 38 -1 7 -18 -17 -43 -41 -43 -15 0
-33 -31 -33 -57 0 -28 -37 -63 -65 -63 -18 0 -25 -5 -25 -20 0 -26 6 -28 113
-33 112 -6 131 -20 130 -99 0 -49 -7 -124 -17 -173 -2 -11 -7 -39 -11 -62 -4
-24 -7 -43 -8 -43 -3 0 -147 55 -226 86 -72 29 -74 30 -107 95 -32 64 -78 114
-94 104 -5 -3 -30 -37 -56 -77 l-47 -72 17 -71 c23 -96 33 -200 25 -255 -7
-47 -32 -92 -105 -190 -44 -59 -59 -73 -86 -83 -28 -10 -21 6 28 69 25 33 52
75 60 94 8 19 25 45 36 57 28 30 8 29 -40 0 -72 -46 -342 -143 -652 -234 -173
-51 -173 -51 -320 -88 -186 -46 -195 -45 -241 17 -16 23 -30 39 -30 37 -1 -2
-3 -17 -5 -33 -18 -160 -75 -247 -163 -248 -128 -2 -255 215 -253 432 0 41 4
85 9 97 5 13 8 -23 8 -95 0 -136 23 -227 77 -308 39 -59 107 -98 153 -89 64
12 108 93 118 219 6 70 -7 117 -69 243 -73 148 -104 176 -186 164 -3 -1 -21
-13 -40 -28 -31 -25 -32 -26 -13 -3 32 39 59 59 78 60 27 0 20 17 -11 23 -80
16 -179 -11 -203 -55 -15 -27 -18 -122 -7 -201 5 -34 10 -75 12 -91 l4 -28
-232 6 c-127 4 -275 8 -328 9 -54 2 -99 5 -101 7 -2 3 -23 45 -48 94 -24 48
-55 97 -68 107 -51 41 -103 13 -115 -62 -5 -32 -9 -40 -16 -29 -5 8 -10 25
-10 38 0 12 -4 22 -9 22 -5 0 -7 -13 -5 -29 9 -56 77 -270 126 -395 l30 -78
-21 -21 -21 -21 -58 41 c-44 31 -62 39 -71 30 -6 -6 -11 -15 -11 -20 0 -4 -14
-36 -31 -70 -51 -102 -113 -271 -205 -554 -47 -148 -87 -272 -88 -278 -1 -5
-43 -136 -93 -290 -135 -413 -249 -772 -268 -837 -18 -63 -15 -86 15 -113 19
-17 141 -18 2692 -17 1470 0 2687 1 2704 1 16 1 40 10 52 21 l22 21 0 940 c0
915 -1 941 -20 978 -18 37 -62 137 -167 381 -25 58 -48 109 -52 113 -4 4 -33
-1 -63 -13 -30 -11 -62 -18 -69 -15 -8 3 -49 43 -92 89 l-78 84 -62 -5 -62 -4
-33 57 -33 58 53 51 c86 82 177 155 201 159 12 3 42 7 66 11 81 11 148 62 182
140 18 41 28 129 17 141 -3 2 -38 -27 -79 -65 -41 -39 -81 -71 -90 -71 -15 0
-77 62 -120 119 -25 35 -24 37 59 126 66 71 73 84 45 86 -90 7 -171 -27 -212
-87 -24 -34 -51 -119 -51 -159 0 -25 -36 -79 -119 -180 l-64 -78 -17 22 -16
23 -53 -31 c-46 -28 -116 -61 -127 -61 -7 0 -94 138 -94 149 0 6 6 12 13 12 6
1 17 2 22 4 6 1 19 3 30 4 18 2 18 3 -5 15 -14 8 -44 17 -67 21 -60 10 -68 23
-54 93 7 31 13 65 15 74 3 27 12 31 68 33 58 1 55 -6 44 87 -7 57 7 64 24 11
32 -101 95 -241 119 -265 26 -27 88 -42 111 -28 8 5 3 13 -17 25 -40 24 -50
41 -98 182 -48 141 -53 132 69 131 63 -1 80 2 88 16 5 9 16 16 23 16 20 0 19
15 -2 51 -17 28 -17 31 1 64 19 35 19 36 0 51 -29 22 -56 31 -89 29 -16 -2
-48 -4 -69 -6 -38 -4 -40 -2 -68 51 -28 51 -29 55 -12 67 16 12 17 17 5 46
-22 54 -22 69 -2 167 l19 95 -46 85 c-93 175 -116 217 -166 299 -28 47 -56 86
-61 88 -6 2 -55 -24 -110 -58z m-2374 -1766 c-12 -20 -14 -14 -5 12 4 9 9 14
11 11 3 -2 0 -13 -6 -23z m-848 -117 c51 -78 89 -289 64 -359 -7 -23 -15 -28
-36 -25 -20 2 -25 8 -22 23 20 101 -17 298 -67 357 -12 14 -12 21 -2 33 15 18
40 7 63 -29z m734 -181 c17 -12 22 -20 15 -27 -12 -12 -198 -11 -550 2 -70 3
-101 17 -88 39 4 6 119 8 302 6 255 -3 299 -6 321 -20z m-204 -66 c92 -4 81
-9 -168 -84 -65 -19 -78 -21 -112 -17 -14 2 -8 68 8 88 16 19 73 22 272 13z
m146 -434 c7 -8 71 -189 77 -220 1 -5 9 -30 17 -55 15 -45 119 -368 281 -870
123 -384 139 -440 132 -448 -12 -11 -627 -8 -642 3 -7 6 -31 64 -54 130 -22
65 -46 123 -52 126 -16 10 -440 11 -454 1 -11 -7 -32 -57 -74 -181 -21 -62
-29 -76 -50 -81 -14 -3 -143 -6 -287 -5 -356 2 -353 0 -284 218 24 73 85 265
138 427 52 162 115 358 140 435 103 322 157 478 175 500 12 16 31 25 56 27 95
8 873 1 881 -7z m1877 2 c4 -4 8 -95 8 -203 l1 -196 -272 -2 c-149 0 -275 -4
-278 -8 -10 -9 -11 -250 -2 -265 5 -8 71 -12 204 -13 115 0 200 -5 203 -10 7
-12 4 -376 -3 -387 -3 -5 -94 -9 -203 -11 -109 -1 -199 -4 -201 -6 -2 -1 -5
-115 -6 -251 l-3 -248 -323 0 c-177 0 -324 3 -327 6 -7 6 -12 1509 -6 1561 3
29 9 35 31 38 52 7 1170 2 1177 -5z m842 -45 c26 -31 85 -103 131 -159 45 -57
88 -103 95 -103 8 0 31 21 52 48 22 26 46 56 56 67 9 11 48 59 87 106 57 70
76 88 103 91 17 3 149 5 292 4 276 -1 298 -5 312 -48 4 -13 8 -357 8 -765 l1
-742 -21 -27 -22 -27 -308 0 -309 0 -1 259 c-4 445 -6 514 -14 514 -4 0 -22
-18 -40 -40 -17 -21 -39 -48 -48 -59 -10 -10 -46 -56 -80 -100 -35 -45 -66
-81 -68 -81 -2 0 -46 53 -98 118 -51 64 -105 127 -119 140 l-25 23 -4 -40 c-2
-22 -5 -195 -6 -383 -2 -188 -5 -344 -7 -346 -3 -4 -506 -6 -622 -3 l-31 1 -1
799 c-1 756 0 800 16 803 10 2 154 4 320 5 l302 2 49 -57z m-4146 -1660 c30
-76 46 -127 42 -134 -3 -5 -15 -1 -27 7 -27 19 -56 19 -76 1 -11 -10 -21 -12
-31 -6 -12 8 -12 10 -1 10 7 0 11 6 7 15 -6 16 17 88 40 123 17 26 31 21 46
-16z m254 -27 c7 -92 49 -95 53 -3 1 50 18 79 32 56 4 -5 5 -40 4 -76 -4 -73
-17 -92 -65 -92 -40 0 -63 32 -67 91 -6 95 35 118 43 24z m369 55 c4 -6 -1
-20 -11 -31 -11 -13 -19 -39 -20 -71 -5 -96 -44 -88 -44 9 0 43 -4 54 -21 63
-15 8 -17 15 -10 24 13 16 97 20 106 6z m293 -9 c20 -10 40 -54 36 -78 -1 -7
-2 -19 -3 -25 -3 -25 -29 -48 -60 -54 -30 -6 -31 -6 -25 23 5 24 1 34 -17 47
-15 10 -27 12 -33 6 -17 -17 -26 -11 -26 16 0 36 49 82 82 79 14 -2 35 -8 46
-14z m510 10 c21 -1 13 -21 -13 -31 -14 -5 -25 -12 -25 -15 0 -3 11 -10 25
-15 14 -5 25 -16 25 -25 0 -9 -9 -15 -25 -15 -21 0 -25 -5 -25 -29 0 -32 -16
-49 -31 -34 -7 7 -14 129 -10 165 1 4 16 6 34 4 17 -3 38 -5 45 -5z m283 -56
c38 -85 38 -147 0 -101 -16 19 -61 27 -67 11 -6 -15 -44 -27 -44 -14 0 4 10
34 21 66 12 32 26 68 30 81 14 36 29 26 60 -43z m287 56 c21 -2 13 -31 -8 -31
-27 0 -25 -18 5 -42 45 -35 25 -97 -31 -98 -12 0 -27 7 -34 15 -13 16 -5 36
13 34 42 -5 50 12 12 29 -32 15 -43 57 -21 81 10 11 25 18 34 16 9 -2 23 -4
30 -4z m238 -18 c10 -41 13 -44 35 -33 11 6 17 15 15 19 -3 4 1 17 9 27 11 16
14 17 19 4 7 -18 9 -58 7 -123 -1 -56 -20 -60 -33 -9 -10 36 -32 42 -48 12 -6
-11 -8 -20 -4 -20 3 0 1 -7 -6 -15 -21 -25 -33 -2 -37 71 -3 63 6 94 28 94 5
0 12 -12 15 -27z m305 -12 c3 -53 -1 -134 -7 -140 -3 -3 -12 2 -19 13 -13 17
-18 124 -8 153 8 21 33 2 34 -26z m292 30 c4 -1 16 -10 27 -21 26 -26 27 -89
1 -119 l-20 -22 -3 33 c-2 27 -8 34 -29 36 -19 2 -28 -3 -37 -23 -7 -15 -10
-31 -7 -36 4 -5 2 -9 -4 -9 -19 0 -41 44 -41 81 0 29 7 43 31 63 18 16 39 24
52 22 12 -3 25 -5 30 -5z m294 -41 c18 -31 50 -43 39 -15 -8 22 12 71 25 58
14 -14 7 -165 -8 -170 -6 -2 -26 16 -45 41 -18 25 -36 45 -39 46 -3 0 -5 -12
-4 -27 2 -33 -12 -66 -26 -58 -10 7 -13 158 -3 168 11 11 42 -12 61 -43z m544
2 c9 -23 29 -22 29 2 0 7 8 20 19 30 26 24 39 4 47 -75 3 -35 7 -68 7 -73 1
-5 -4 -11 -10 -13 -15 -5 -36 44 -28 65 3 8 0 12 -7 10 -7 -3 -17 -19 -22 -36
-11 -40 -32 -41 -41 -2 -7 33 -24 50 -26 26 -2 -25 -4 -30 -15 -50 -6 -10 -16
-16 -21 -13 -13 8 4 159 19 168 15 10 37 -8 49 -39z m411 20 c21 -21 34 -92
17 -92 -5 0 -9 5 -9 10 0 6 -11 10 -24 10 -26 0 -42 -28 -37 -62 5 -36 -51
-13 -73 30 -43 86 60 171 126 104z m295 11 c4 -9 -1 -21 -10 -28 -11 -8 -18
-32 -21 -70 -3 -32 -8 -60 -10 -62 -14 -14 -26 14 -26 59 0 33 -6 58 -16 69
-25 28 -11 47 36 47 29 1 43 -4 47 -15z m286 6 c26 -12 47 -47 47 -78 0 -14
-6 -17 -25 -13 -20 3 -27 -1 -35 -24 -6 -15 -9 -33 -6 -41 10 -24 -42 -14 -69
13 -23 23 -26 33 -21 73 2 25 5 47 5 48 2 6 57 32 68 33 7 0 23 -5 36 -11z
m304 1 c19 0 31 -51 19 -83 -8 -20 -7 -33 2 -47 25 -41 10 -53 -26 -20 -25 24
-32 25 -32 6 0 -8 -5 -18 -11 -22 -21 -13 -32 16 -31 87 1 76 10 93 47 84 11
-2 25 -5 32 -5z m292 1 c16 -10 6 -31 -15 -31 -21 0 -17 -13 11 -40 45 -43 26
-100 -33 -100 -27 0 -46 24 -30 37 7 6 21 9 31 8 26 -5 21 10 -14 39 -36 31
-36 64 1 83 30 15 31 15 49 4z"/>
<path d="M1598 2277 c-8 -17 -27 -72 -42 -122 -15 -49 -34 -109 -42 -133 -17
-53 -18 -69 -1 -74 11 -3 67 -3 175 1 39 1 40 -6 -18 176 -23 72 -43 141 -46
155 -7 34 -8 34 -26 -3z"/>
<path d="M2655 4699 c-22 -5 -53 -10 -70 -13 -16 -3 -39 -7 -50 -10 -11 -2
-42 -7 -69 -10 -27 -4 -52 -9 -56 -11 -3 -2 -25 -6 -50 -10 -24 -4 -132 -29
-239 -56 -127 -33 -209 -49 -232 -46 l-37 5 47 -47 c25 -26 78 -88 116 -139
78 -101 113 -124 181 -115 21 3 140 34 264 68 246 69 342 95 380 102 14 2 79
18 145 35 66 16 128 32 139 34 10 2 21 5 23 8 7 7 -351 183 -403 198 -32 10
-63 12 -89 7z m54 -80 c50 -16 201 -92 230 -117 24 -18 24 -20 5 -25 -43 -13
-159 -37 -204 -43 l-48 -6 -44 71 c-79 131 -74 121 -59 130 16 10 71 6 120
-10z"/>
<path d="M1645 4535 c-40 -18 -16 -19 26 0 19 8 27 14 19 14 -8 0 -28 -6 -45
-14z"/>
<path d="M1678 4482 c-7 -2 -20 -6 -28 -9 -8 -3 -19 -7 -25 -8 -59 -15 -240
-104 -282 -139 -33 -28 -80 -130 -88 -194 -3 -20 -8 -46 -10 -58 -5 -23 4 -24
120 -10 317 38 608 85 618 100 13 19 -1 64 -39 123 -20 31 -41 62 -47 69 -7 8
-28 36 -47 64 -43 61 -99 81 -172 62z m200 -185 c7 -8 15 -28 18 -44 6 -39 -1
-43 -120 -63 -79 -13 -89 -7 -75 44 5 17 9 32 9 33 0 1 15 10 32 19 66 34 109
37 136 11z"/>
<path d="M3680 4389 c-108 -32 -346 -95 -723 -189 -333 -84 -397 -102 -397
-116 0 -13 30 -61 49 -78 19 -18 47 -18 126 -1 223 49 273 56 285 42 5 -7 20
-24 32 -39 l23 -28 145 35 c256 63 513 142 540 167 14 13 17 26 13 52 -6 37
12 66 41 66 20 0 21 30 2 75 -18 42 -37 44 -136 14z"/>
<path d="M3891 4108 c-5 -14 -5 -28 1 -35 15 -19 48 3 48 32 0 33 -37 35 -49
3z"/>
<path d="M1998 4015 c-2 -2 -41 -6 -88 -9 -47 -3 -96 -8 -110 -10 -23 -4 -193
-20 -330 -32 -30 -2 -71 -6 -90 -9 -19 -2 -60 -7 -90 -10 -30 -3 -68 -7 -85
-9 -16 -2 -61 -7 -100 -11 -147 -14 -138 -23 20 -19 246 6 661 21 840 29 28 2
75 3 106 4 51 1 55 3 53 24 -1 12 -3 30 -3 40 -1 15 -10 17 -61 16 -33 -1 -61
-3 -62 -4z"/>
<path d="M3920 3983 c-19 -8 -37 -17 -39 -19 -7 -7 50 -112 64 -118 7 -2 21 1
32 9 14 11 18 25 16 69 -3 83 -9 87 -73 59z"/>
<path d="M3745 3900 c-38 -11 -169 -52 -290 -92 l-219 -73 -22 -45 c-44 -89
-54 -113 -54 -124 0 -28 -76 -66 -160 -81 -19 -3 -75 -15 -125 -27 -49 -11
-100 -23 -112 -25 -40 -9 -15 -21 34 -17 118 10 400 84 703 185 277 92 463
164 485 189 23 25 12 42 -21 30 -38 -15 -41 -14 -71 38 -41 71 -40 71 -148 42z"/>
<path d="M1848 3894 c-2 -1 -48 -5 -103 -8 -55 -4 -111 -8 -125 -10 -14 -3
-56 -7 -95 -11 -38 -4 -88 -8 -110 -10 -22 -2 -65 -6 -95 -9 -132 -12 -177
-17 -215 -21 -66 -8 -187 -21 -289 -31 -65 -6 -79 -22 -16 -18 31 2 306 13
500 19 333 11 510 17 545 20 22 2 47 4 56 4 13 1 15 9 10 39 -5 32 -10 37 -33
38 -15 1 -29 0 -30 -2z"/>
<path d="M2975 3851 c-55 -14 -105 -27 -110 -29 -6 -1 -27 -7 -47 -13 -44 -11
-53 -22 -34 -42 14 -14 61 -11 131 7 11 3 46 12 78 20 55 14 73 26 97 67 12
21 5 20 -115 -10z"/>
<path d="M3050 3709 c-128 -34 -178 -62 -200 -111 -11 -24 -20 -56 -20 -72 l0
-28 52 6 c60 8 164 33 190 47 20 11 78 128 78 158 0 25 -4 25 -100 0z"/>
</g>
</svg>
